<svg width="1200" height="700" viewBox="0 0 1200 700" xmlns="http://www.w3.org/2000/svg" role="img" aria-labelledby="title desc">
  <title id="title">Illustration mission numerique responsable</title>
  <desc id="desc">Jeunes et educateurs qui apprennent la securite numerique.</desc>
  <defs>
    <linearGradient id="bg" x1="0" y1="0" x2="1" y2="1">
      <stop offset="0%" stop-color="#b9f5ff"/>
      <stop offset="100%" stop-color="#fff3cf"/>
    </linearGradient>
  </defs>
  <rect width="1200" height="700" rx="40" fill="url(#bg)"/>
  <circle cx="190" cy="120" r="46" fill="#ffd166"/>
  <circle cx="1050" cy="140" r="58" fill="#8ecae6"/>
  <rect x="110" y="220" width="980" height="390" rx="28" fill="#ffffff" stroke="#b9d9ef" stroke-width="4"/>
  <rect x="160" y="270" width="470" height="290" rx="20" fill="#e9f7ff"/>
  <rect x="690" y="270" width="350" height="130" rx="16" fill="#fff7e4"/>
  <rect x="690" y="420" width="350" height="140" rx="16" fill="#eefce9"/>
  <rect x="210" y="340" width="130" height="130" rx="65" fill="#ff9f1c"/>
  <rect x="360" y="350" width="220" height="20" rx="10" fill="#0f8b8d"/>
  <rect x="360" y="390" width="180" height="16" rx="8" fill="#4c6a88"/>
  <rect x="360" y="425" width="150" height="16" rx="8" fill="#4c6a88"/>
  <path d="M735 330h145" stroke="#0f8b8d" stroke-width="12" stroke-linecap="round"/>
  <path d="M735 360h115" stroke="#3d5a80" stroke-width="9" stroke-linecap="round"/>
  <path d="M735 470h190" stroke="#2a9d8f" stroke-width="12" stroke-linecap="round"/>
  <path d="M735 503h120" stroke="#3d5a80" stroke-width="9" stroke-linecap="round"/>
  <circle cx="990" cy="490" r="26" fill="#2a9d8f"/>
  <path d="M978 490l10 10 18-18" fill="none" stroke="#fff" stroke-width="6" stroke-linecap="round" stroke-linejoin="round"/>
</svg>
