<svg width="1200" height="700" viewBox="0 0 1200 700" xmlns="http://www.w3.org/2000/svg" role="img" aria-labelledby="title desc">
  <title id="title">Illustration formation pour structures</title>
  <desc id="desc">Presentation d'un programme de sensibilisation numerique.</desc>
  <defs>
    <linearGradient id="g1" x1="0" y1="0" x2="1" y2="1">
      <stop offset="0%" stop-color="#e8f6ff"/>
      <stop offset="100%" stop-color="#dfffe8"/>
    </linearGradient>
  </defs>
  <rect width="1200" height="700" rx="40" fill="url(#g1)"/>
  <rect x="90" y="120" width="1020" height="470" rx="28" fill="#fff" stroke="#c5dced" stroke-width="4"/>
  <rect x="150" y="180" width="460" height="350" rx="20" fill="#f7fbff"/>
  <rect x="660" y="180" width="390" height="160" rx="20" fill="#fff5d6"/>
  <rect x="660" y="370" width="390" height="160" rx="20" fill="#e8f9ff"/>
  <rect x="210" y="250" width="340" height="28" rx="14" fill="#0f8b8d"/>
  <rect x="210" y="300" width="280" height="20" rx="10" fill="#56708f"/>
  <rect x="210" y="340" width="300" height="20" rx="10" fill="#56708f"/>
  <rect x="210" y="380" width="250" height="20" rx="10" fill="#56708f"/>
  <circle cx="750" cy="260" r="30" fill="#ff9f1c"/>
  <circle cx="840" cy="260" r="30" fill="#2a9d8f"/>
  <circle cx="930" cy="260" r="30" fill="#457b9d"/>
  <path d="M730 420h250" stroke="#0f8b8d" stroke-width="16" stroke-linecap="round"/>
  <path d="M730 460h210" stroke="#3d5a80" stroke-width="12" stroke-linecap="round"/>
  <path d="M730 495h170" stroke="#3d5a80" stroke-width="12" stroke-linecap="round"/>
</svg>
