<svg width="1200" height="700" viewBox="0 0 1200 700" xmlns="http://www.w3.org/2000/svg" role="img" aria-labelledby="title desc">
  <title id="title">Illustration jeux educatifs</title>
  <desc id="desc">Cartes reflexes, lab code et parcours numerique ludique.</desc>
  <defs>
    <linearGradient id="g2" x1="0" y1="0" x2="1" y2="1">
      <stop offset="0%" stop-color="#f7f8ff"/>
      <stop offset="100%" stop-color="#d9fcff"/>
    </linearGradient>
  </defs>
  <rect width="1200" height="700" rx="40" fill="url(#g2)"/>
  <rect x="80" y="110" width="1040" height="500" rx="28" fill="#fff" stroke="#c8def2" stroke-width="4"/>
  <rect x="140" y="170" width="300" height="380" rx="20" fill="#e8f7ff"/>
  <rect x="480" y="170" width="300" height="380" rx="20" fill="#fff6dd"/>
  <rect x="820" y="170" width="240" height="380" rx="20" fill="#ecfce7"/>
  <circle cx="290" cy="250" r="52" fill="#2a9d8f"/>
  <path d="M264 250h52M290 224v52" stroke="#fff" stroke-width="10" stroke-linecap="round"/>
  <rect x="220" y="340" width="140" height="18" rx="9" fill="#3d5a80"/>
  <rect x="220" y="372" width="110" height="18" rx="9" fill="#3d5a80"/>
  <rect x="540" y="240" width="180" height="120" rx="12" fill="#ffffff" stroke="#f2c96d" stroke-width="3"/>
  <path d="M560 280h140" stroke="#0f8b8d" stroke-width="10" stroke-linecap="round"/>
  <path d="M560 315h120" stroke="#4c6a88" stroke-width="8" stroke-linecap="round"/>
  <path d="M560 345h100" stroke="#4c6a88" stroke-width="8" stroke-linecap="round"/>
  <rect x="540" y="410" width="180" height="90" rx="10" fill="#ffe6a8"/>
  <text x="630" y="465" text-anchor="middle" font-size="32" fill="#4c3d1f" font-family="Verdana">QCM</text>
  <circle cx="940" cy="260" r="46" fill="#ff9f1c"/>
  <path d="M920 260l14 14 26-26" fill="none" stroke="#fff" stroke-width="8" stroke-linecap="round" stroke-linejoin="round"/>
  <rect x="875" y="350" width="130" height="18" rx="9" fill="#2d6a4f"/>
  <rect x="875" y="382" width="150" height="18" rx="9" fill="#2d6a4f"/>
  <rect x="875" y="414" width="95" height="18" rx="9" fill="#2d6a4f"/>
</svg>
