<svg width="720" height="220" viewBox="0 0 720 220" xmlns="http://www.w3.org/2000/svg">
  <defs>
    <linearGradient id="g1" x1="0" y1="0" x2="1" y2="1"><stop offset="0" stop-color="#e0f7ff"/><stop offset="1" stop-color="#c8ecff"/></linearGradient>
    <linearGradient id="g2" x1="0" y1="0" x2="1" y2="1"><stop offset="0" stop-color="#d7f9ea"/><stop offset="1" stop-color="#c2efd8"/></linearGradient>
    <linearGradient id="g3" x1="0" y1="0" x2="1" y2="1"><stop offset="0" stop-color="#fff1d7"/><stop offset="1" stop-color="#ffe5b8"/></linearGradient>
    <linearGradient id="g4" x1="0" y1="0" x2="1" y2="1"><stop offset="0" stop-color="#fbe1e1"/><stop offset="1" stop-color="#f6c9c9"/></linearGradient>
  </defs>
  <rect width="720" height="220" fill="#f3fbff"/>
  <g font-family="Trebuchet MS, sans-serif" font-size="20" font-weight="700" fill="#173047">
    <g transform="translate(10 10)"><rect rx="16" width="100" height="200" fill="url(#g1)" stroke="#8ec2df"/><text x="50" y="36" text-anchor="middle">Transmettre</text><text x="50" y="130" text-anchor="middle">📨</text></g>
    <g transform="translate(130 10)"><rect rx="16" width="100" height="200" fill="url(#g3)" stroke="#e0b96b"/><text x="50" y="36" text-anchor="middle">Copier</text><text x="50" y="130" text-anchor="middle">📸</text></g>
    <g transform="translate(250 10)"><rect rx="16" width="100" height="200" fill="url(#g2)" stroke="#74c39b"/><text x="50" y="36" text-anchor="middle">Partager</text><text x="50" y="130" text-anchor="middle">🔁</text></g>
    <g transform="translate(370 10)"><rect rx="16" width="100" height="200" fill="url(#g4)" stroke="#d18b8b"/><text x="50" y="36" text-anchor="middle">Blocage</text><text x="50" y="130" text-anchor="middle">⛔</text></g>
    <g transform="translate(490 10)"><rect rx="16" width="100" height="200" fill="url(#g1)" stroke="#7ca7d6"/><text x="50" y="36" text-anchor="middle">Firewall</text><text x="50" y="130" text-anchor="middle">🛡️</text></g>
    <g transform="translate(610 10)"><rect rx="16" width="100" height="200" fill="url(#g2)" stroke="#59b88a"/><text x="50" y="36" text-anchor="middle">Carte Adulte</text><text x="50" y="130" text-anchor="middle">🧑‍🏫</text></g>
  </g>
</svg>
